<svg width="25" height="23" viewBox="0 0 25 23" fill="none" xmlns="http://www.w3.org/2000/svg">
<path d="M16.3104 13.2612C15.0994 11.7989 13.5686 10.9937 12 10.9937C10.4314 10.9937 8.90057 11.7989 7.68958 13.2612C6.60104 14.5755 5.95117 16.2319 5.95117 17.6921C5.95117 18.4014 6.16802 18.9417 6.59566 19.298C7.01774 19.6497 7.575 19.7687 8.19671 19.7686C8.85824 19.7686 9.5928 19.6339 10.3145 19.5015C10.9452 19.3858 11.5409 19.2765 12 19.2765C12.3963 19.2765 12.955 19.3802 13.5465 19.49C14.9287 19.7467 16.4954 20.0375 17.4004 19.285C17.8307 18.9273 18.0488 18.3913 18.0488 17.6921C18.0489 16.2319 17.399 14.5755 16.3104 13.2612Z" fill="#2E4960"/>
<path d="M16.4342 5.32094C15.9911 4.66763 15.3566 4.29297 14.6934 4.29297C14.0301 4.29297 13.3956 4.66766 12.9525 5.32094C12.5455 5.92109 12.3213 6.70922 12.3213 7.54018C12.3213 8.37113 12.5454 9.15926 12.9525 9.75941C13.3956 10.4127 14.0301 10.7874 14.6934 10.7874C15.3566 10.7874 15.9911 10.4127 16.4342 9.75941C16.8412 9.15926 17.0654 8.37113 17.0654 7.54018C17.0654 6.70922 16.8413 5.92106 16.4342 5.32094Z" fill="#2E4960"/>
<path d="M20.8956 10.4179C20.717 9.81028 20.3341 9.36875 19.8175 9.17472C19.4018 9.01859 18.9326 9.04507 18.4963 9.24929C17.8949 9.53068 17.4034 10.1117 17.1478 10.8434C16.9389 11.4414 16.9129 12.0734 17.0745 12.6231C17.2531 13.2308 17.636 13.6723 18.1526 13.8663C18.3314 13.9335 18.52 13.9668 18.7117 13.9668C18.9657 13.9668 19.2252 13.9082 19.4739 13.7918C20.0753 13.5104 20.5668 12.9293 20.8224 12.1976V12.1976C21.0312 11.5997 21.0572 10.9677 20.8956 10.4179Z" fill="#2E4960"/>
<path d="M11.0475 5.32094C10.6044 4.66763 9.96989 4.29297 9.30663 4.29297C8.64338 4.29297 8.00888 4.66766 7.5658 5.32094C7.15876 5.92109 6.93457 6.70922 6.93457 7.54018C6.93457 8.37113 7.15873 9.15926 7.5658 9.75941C8.00891 10.4127 8.64338 10.7874 9.30663 10.7874C9.96989 10.7874 10.6044 10.4127 11.0475 9.75941C11.4545 9.15926 11.6787 8.37116 11.6787 7.54018C11.6787 6.70922 11.4545 5.92105 11.0475 5.32094Z" fill="#2E4960"/>
<path d="M6.85264 10.8434C6.59702 10.1117 6.1055 9.53066 5.50419 9.24927C5.06779 9.04505 4.59853 9.01861 4.18288 9.17471C3.66629 9.36877 3.2834 9.8103 3.10477 10.4179C2.94316 10.9676 2.96921 11.5997 3.17808 12.1976V12.1976C3.43373 12.9293 3.92522 13.5104 4.52653 13.7917C4.77529 13.9081 5.03471 13.9668 5.28879 13.9668C5.48046 13.9668 5.66911 13.9334 5.84784 13.8663C6.3645 13.6722 6.74735 13.2307 6.92598 12.6231C7.08752 12.0734 7.06147 11.4414 6.85264 10.8434Z" fill="#2E4960"/>
</svg>
