<svg width="80" height="80" viewBox="0 0 80 80" fill="none" xmlns="http://www.w3.org/2000/svg">
<path d="M47.2963 51.8989L49.2728 53.8745L51.5914 56.1794L52.4783 57.0786L57.1027 52.4561L51.9335 47.2764L47.2963 51.8989Z" fill="#5D6D7E"/>
<path d="M61.6131 52.4688L77.1462 67.9953C79.6675 70.5155 79.6675 74.5934 77.1462 77.1136C74.625 79.6338 70.5453 79.6338 68.024 77.1136L52.4908 61.5871L61.6131 52.4688Z" fill="#FF9F00"/>
<path d="M59.4212 54.3304L60.6882 53.0386L76.348 68.907C78.3879 70.9966 78.3879 74.3273 76.348 76.417C76.1833 76.5816 75.9553 76.6829 75.7145 76.6829C75.4738 76.6829 75.2458 76.5816 75.0811 76.417C74.7263 76.0624 74.7263 75.4925 75.0811 75.1252C76.424 73.7575 76.424 71.5539 75.0811 70.1861L59.4212 54.3304Z" fill="#DDDDDD"/>
<path d="M52.3136 61.4605L61.4992 52.2789L60.815 51.595C59.9281 50.7085 58.4837 50.7085 57.5969 51.595L51.6294 57.5599C50.7425 58.4464 50.7425 59.8775 51.6294 60.764L52.3136 61.4605Z" fill="#34495E"/>
<path d="M0 29.3306C0 13.1329 13.1512 0 29.3559 0C45.5605 0 58.7118 13.1456 58.7118 29.3432C58.7118 45.5409 45.5732 58.6864 29.3559 58.6864C13.1386 58.6864 0 45.5409 0 29.3306C0 29.3432 0 29.3306 0 29.3306Z" fill="#34495E"/>
<path d="M29.4192 55.3562C43.7614 55.3562 55.3796 43.7431 55.3796 29.4071C55.3796 15.0711 43.7614 3.45789 29.4192 3.45789C15.0897 3.45789 3.45883 15.0711 3.45883 29.4071C3.45883 43.7304 15.077 55.3562 29.4192 55.3562Z" fill="#5D6D7E"/>
<path d="M29.4193 53.6212C42.7985 53.6212 53.6439 42.7806 53.6439 29.4071C53.6439 16.0336 42.7985 5.18024 29.4193 5.18024C16.04 5.18024 5.19464 16.0336 5.19464 29.4071C5.19464 42.7806 16.04 53.6212 29.4193 53.6212Z" fill="#CEE2F2"/>
<path d="M45.5733 15.679C41.3036 17.3253 37.4013 19.7695 34.0564 22.885C33.1696 22.5557 32.2193 22.3784 31.2691 22.3784H28.3424C27.3921 22.3784 26.4419 22.5557 25.555 22.885C22.2102 19.7695 18.3079 17.3253 14.0382 15.679C13.088 15.3244 12.0237 15.8056 11.6689 16.7554C11.5422 17.072 11.5169 17.414 11.5803 17.7433C12.3911 21.8845 13.9368 25.8611 16.1414 29.4577C17.0663 30.9901 18.4599 32.1806 20.107 32.8644L18.802 44.7182C18.802 48.1503 23.7306 50.9238 29.8121 50.9238C35.8936 50.9238 40.8221 48.1503 40.8221 44.7182L39.5171 32.8644C41.1642 32.1806 42.5579 30.9901 43.4828 29.4577C45.6873 25.8611 47.233 21.8845 48.0439 17.7433C48.2339 16.7428 47.5624 15.7803 46.5615 15.5903C46.2321 15.527 45.89 15.565 45.5859 15.679H45.5733Z" fill="#FF9F00"/>
<path d="M40.8094 44.7182L39.8972 36.4611L36.0455 35.7012C33.6763 35.2326 31.7378 33.561 30.9143 31.294L29.7993 28.1913L28.6844 31.294C27.8609 33.561 25.9224 35.2326 23.5531 35.7012L19.7015 36.4611L18.7893 44.7182C18.7893 48.1502 23.7179 50.9237 29.7993 50.9237C35.8808 50.9237 40.8094 48.1376 40.8094 44.7182Z" fill="#F3E8D4"/>
<path d="M34.6772 37.031C34.3478 37.031 34.0817 37.2969 34.0817 37.6262C34.0817 38.6393 33.2582 39.4752 32.2446 39.4752C31.3704 39.4752 30.6228 38.8673 30.4328 38.0061C30.5088 37.9555 30.5595 37.8921 30.6228 37.8288L32.0165 36.0431C32.3713 35.5872 32.2826 34.9414 31.8391 34.5868C31.6618 34.4474 31.4337 34.3715 31.2057 34.3715H28.4183C27.8482 34.3715 27.3794 34.84 27.3794 35.4099C27.3794 35.6379 27.4554 35.8658 27.5948 36.0431L28.9884 37.8288C29.0391 37.8921 29.1025 37.9555 29.1658 38.0061C28.9631 39.0066 27.9875 39.6398 26.9866 39.4372C26.1251 39.2599 25.5169 38.5 25.5169 37.6262C25.5169 37.2969 25.2509 37.031 24.9214 37.031C24.592 37.031 24.326 37.2969 24.326 37.6262C24.326 39.2979 25.6816 40.653 27.354 40.6656C28.3169 40.6656 29.2292 40.2097 29.7993 39.4245C30.7875 40.7796 32.688 41.0709 34.031 40.0704C34.8165 39.5005 35.2727 38.5887 35.2727 37.6262C35.2727 37.2843 35.0066 37.0183 34.6772 37.031Z" fill="#2B1716"/>
<path d="M34.4997 29.8123C33.7396 29.8123 33.1187 30.4329 33.1187 31.1927V32.1679C33.1441 32.9277 33.7776 33.5356 34.5504 33.5103C35.2853 33.485 35.8681 32.9024 35.8934 32.1679V31.1927C35.8808 30.4202 35.2599 29.8123 34.4997 29.8123Z" fill="#2B1716"/>
<path d="M25.0988 29.8123C24.3386 29.8123 23.7051 30.4202 23.7051 31.1927V32.1679C23.7305 32.9277 24.364 33.5356 25.1368 33.5103C25.8717 33.485 26.4545 32.9024 26.4798 32.1679V31.1927C26.4672 30.4329 25.859 29.8123 25.0988 29.8123Z" fill="#2B1716"/>
<path d="M15.3684 15.1724C15.2544 14.9951 15.1024 14.8431 14.9503 14.7165C14.0508 13.982 12.7078 14.1086 11.9729 15.0204L11.9603 15.0331C7.12041 20.9853 5.91678 29.1285 8.81816 36.2332C9.29961 37.3096 10.5539 37.7909 11.6309 37.3096C12.6571 36.8537 13.1512 35.6759 12.7585 34.6248C10.4526 28.9385 11.4155 22.467 15.2671 17.6926C15.8499 16.9707 15.8879 15.9449 15.3684 15.1724Z" fill="white"/>
<path d="M29.0011 8.19433C28.583 7.57378 27.8608 7.20652 27.1133 7.24451C23.8191 7.43447 20.6264 8.39696 17.7757 10.0433C16.7621 10.6259 16.42 11.9303 17.0028 12.9434C17.5856 13.9566 18.8906 14.2985 19.9042 13.716C22.1847 12.3989 24.7314 11.639 27.354 11.4871C28.5196 11.4237 29.4065 10.4359 29.3432 9.2708V9.25813C29.3432 8.87821 29.2165 8.51094 29.0011 8.19433Z" fill="white"/>
</svg>
